<svg id="SvgjsSvg1016" width="288" height="288" xmlns="http://www.w3.org/2000/svg" version="1.1" xmlns:xlink="http://www.w3.org/1999/xlink" xmlns:svgjs="http://svgjs.com/svgjs"><defs id="SvgjsDefs1017"></defs><g id="SvgjsG1018"><svg xmlns="http://www.w3.org/2000/svg" viewBox="0 0 24 24" width="288" height="288"><path d="M3,13V11A2,2,0,0,1,5,9H9V5a2,2,0,0,1,2-2h2a2,2,0,0,1,2,2V9h4a2,2,0,0,1,2,2v2a2,2,0,0,1-2,2H15v4a2,2,0,0,1-2,2H11a2,2,0,0,1-2-2V15H5A2,2,0,0,1,3,13Z" fill="#36b09f" class="color000 svgShape"></path></svg></g></svg>